<?xml version="1.0" standalone="no"?>
<!DOCTYPE svg PUBLIC "-//W3C//DTD SVG 20010904//EN"
 "http://www.w3.org/TR/2001/REC-SVG-20010904/DTD/svg10.dtd">
<svg version="1.0" xmlns="http://www.w3.org/2000/svg"
 width="308.000000pt" height="308.000000pt" viewBox="0 0 308.000000 308.000000"
 preserveAspectRatio="xMidYMid meet">

<g transform="translate(0.000000,308.000000) scale(0.100000,-0.100000)"
fill="#000000" stroke="none">
<path d="M1220 2647 l0 -45 -75 20 c-42 11 -78 18 -82 15 -3 -4 -2 -120 3
-259 l9 -253 37 -20 c23 -12 38 -27 38 -39 0 -13 5 -17 20 -13 20 5 21 3 34
-64 3 -12 -6 -19 -26 -23 -47 -9 -47 -9 -54 35 l-7 41 -44 -5 c-24 -2 -46 -6
-48 -8 -2 -2 0 -23 5 -46 l7 -43 -33 0 c-19 0 -37 -1 -41 -1 -5 -1 -11 15 -14
35 -3 20 -8 39 -11 41 -5 5 -117 -21 -125 -29 -2 -2 36 -237 84 -524 l88 -520
77 -18 c70 -15 77 -19 73 -38 -3 -12 -11 -61 -20 -110 -10 -64 -20 -92 -33
-102 -12 -8 -22 -31 -26 -60 -5 -43 -2 -54 38 -123 23 -42 55 -97 69 -122 l26
-47 148 47 c164 52 158 48 178 155 7 33 5 36 -16 36 -12 0 -61 -12 -108 -27
-71 -24 -86 -32 -95 -55 -8 -22 -47 -48 -72 -48 -8 0 39 243 90 463 13 56 13
57 -8 57 -11 0 -38 -5 -59 -11 -22 -6 -40 -9 -42 -7 -1 2 -6 21 -9 44 l-7 41
110 28 c61 16 115 31 121 35 8 5 7 43 -4 129 -8 67 -17 125 -20 130 -3 5 -22
5 -41 1 -32 -7 -36 -6 -41 15 -10 40 -1 59 31 65 28 5 30 8 28 45 -4 61 -7 64
-47 55 -39 -9 -46 -1 -46 51 0 25 4 29 29 29 38 0 44 10 36 64 -7 44 -7 44
-42 39 -39 -7 -53 6 -53 48 0 23 5 28 34 33 l35 7 -6 104 c-3 58 -4 105 -1
105 3 0 22 -7 41 -15 20 -8 55 -15 77 -15 l40 0 0 -101 0 -102 40 7 40 6 0
-41 0 -41 43 7 c111 17 107 15 107 45 0 41 10 60 30 60 47 0 50 7 50 110 l0
98 66 11 c37 7 68 10 70 8 7 -7 7 -180 -1 -479 l-7 -296 52 11 53 12 34 120
c18 66 41 147 49 180 9 33 22 80 29 105 8 25 25 90 40 145 15 55 35 129 46
165 l20 65 -34 30 c-92 82 -149 130 -157 133 -5 2 -7 33 -5 70 2 37 5 121 7
187 l3 120 -25 -2 c-14 -1 -124 -11 -245 -22 -333 -31 -359 -32 -447 -9 l-77
21 -3 45 c-4 62 -28 69 -28 9z m670 -191 c0 -46 -9 -56 -56 -56 -22 0 -24 4
-24 44 0 47 -1 46 68 55 8 1 12 -14 12 -43z m-160 -20 c0 -37 -4 -45 -22 -50
-51 -13 -58 -9 -58 38 0 47 -1 46 68 55 8 0 12 -14 12 -43z m-160 -72 l0 -96
35 4 35 4 0 -43 c0 -34 -4 -43 -17 -43 -10 0 -28 -3 -40 -6 -21 -6 -23 -3 -23
37 l0 44 -80 -3 -80 -4 0 45 c0 48 9 57 56 57 22 0 24 4 24 43 0 24 3 47 7 50
3 4 24 7 45 7 l38 0 0 -96z m398 -1 c-3 -48 -3 -48 -40 -51 l-38 -3 0 50 0 51
41 0 40 0 -3 -47z m-158 13 c0 -7 -3 -27 -6 -44 -5 -25 -12 -31 -40 -34 l-34
-4 0 48 0 48 40 0 c27 0 40 -4 40 -14z m70 -116 c0 -33 -3 -40 -19 -40 -11 0
-26 -3 -35 -6 -13 -5 -16 2 -16 40 0 46 0 46 35 46 34 0 35 -1 35 -40z m-580
-329 c0 -36 -3 -40 -31 -46 -36 -8 -49 4 -49 47 0 29 10 36 53 37 25 1 27 -2
27 -38z m-169 -27 c4 -21 6 -39 5 -40 0 -1 -17 -4 -38 -7 -31 -5 -37 -2 -42
16 -13 48 -7 66 22 70 42 6 46 3 53 -39z m93 -50 c3 -9 6 -28 6 -44 0 -24 -4
-28 -34 -32 -28 -3 -36 0 -40 17 -13 46 -7 64 22 68 15 2 30 5 33 6 4 0 10 -6
13 -15z m-163 -57 c5 -33 3 -38 -17 -43 -42 -11 -58 -1 -65 38 -5 32 -3 38 15
41 48 10 61 3 67 -36z m99 -61 c0 -13 3 -31 6 -40 4 -11 -4 -17 -31 -22 -43
-8 -44 -7 -52 39 -6 37 1 43 55 46 17 1 22 -4 22 -23z m101 -98 c3 -21 3 -38
-1 -38 -4 0 -21 -3 -38 -6 -29 -6 -31 -4 -38 31 -8 42 5 57 46 53 20 -3 26
-10 31 -40z m-171 -12 c0 -13 3 -31 6 -39 4 -11 -5 -16 -32 -22 -42 -7 -54 3
-54 47 0 29 10 36 53 37 22 1 27 -3 27 -23z m103 -97 c5 -36 4 -37 -31 -43
-20 -3 -37 -4 -39 -2 -2 1 -4 20 -6 42 -2 35 0 39 28 44 37 8 41 4 48 -41z
m91 -45 c18 -46 1 -74 -44 -74 -34 0 -41 76 -7 83 41 8 45 7 51 -9z m-161 -51
c5 -44 2 -48 -39 -56 -27 -5 -33 -3 -38 16 -16 60 -11 66 60 76 7 0 14 -16 17
-36z m97 -67 c0 -13 3 -31 6 -39 4 -11 -5 -16 -31 -21 -44 -9 -44 -8 -52 37
-6 37 1 43 55 46 17 1 22 -4 22 -23z m94 -62 c3 -9 6 -28 6 -44 0 -23 -5 -29
-32 -34 -38 -8 -38 -7 -45 42 -5 38 -4 41 23 45 16 2 32 5 35 6 4 0 10 -6 13
-15z m-164 -41 c0 -10 3 -28 6 -40 5 -18 0 -23 -32 -32 -21 -6 -39 -9 -40 -8
-2 2 -6 21 -10 44 -5 35 -3 42 12 46 42 11 64 7 64 -10z"/>
<path d="M1799 1406 c-86 -19 -89 -21 -89 -61 l0 -35 40 6 40 7 0 -41 c0 -39
-1 -40 -40 -47 -39 -7 -40 -8 -40 -46 0 -21 5 -39 10 -39 6 0 40 7 75 16 l65
16 0 119 c0 66 -1 119 -2 118 -2 -1 -28 -7 -59 -13z"/>
<path d="M1522 1349 c-19 -4 -38 -11 -44 -17 -6 -6 -8 -52 -3 -127 l7 -116 32
7 c17 3 35 9 39 13 4 4 6 61 5 127 l-3 120 -33 -7z"/>
<path d="M1791 1081 c-13 -9 -7 -71 7 -71 27 1 52 15 52 30 0 45 -25 62 -59
41z"/>
<path d="M1606 1062 c-2 -4 -1 -13 3 -20 8 -13 -3 -73 -42 -232 l-23 -95 23
-130 c18 -98 21 -135 13 -149 -13 -20 7 -159 21 -150 4 2 11 -2 16 -9 4 -7 40
-25 78 -39 l70 -26 145 50 c80 28 149 54 153 58 9 8 -12 140 -25 155 -5 5 -13
4 -20 -3 -28 -28 -58 -8 -58 39 0 15 -5 19 -17 15 -10 -3 -54 -15 -98 -27 -44
-12 -87 -23 -96 -26 -18 -5 -26 33 -90 405 -31 177 -39 206 -53 184z m297
-669 c7 -43 3 -50 -40 -59 -29 -6 -31 -4 -37 31 -4 20 -6 38 -4 40 4 3 61 23
69 24 4 1 9 -16 12 -36z"/>
<path d="M1503 993 c-17 -3 -25 -15 -33 -46 -6 -23 -13 -48 -15 -54 -5 -14 10
-16 39 -4 24 9 61 114 39 110 -5 -1 -18 -4 -30 -6z"/>
</g>
</svg>
